# xmcd
#
# Track frame offsets:
# 150
# 23425
# 40270
# 69367
# 87262
# 104627
# 123560
# 142580
# 160522
# 177472
# 194732
#
# Disc length: 3317 seconds
#
#
# Revision: 3
# Processed by: cddbd v1.5.1PL0 Copyright (c) Steve Scherf et al.
# Submitted via: FreeRIP 2.12 
#
DISCID=8d0cf30b
DTITLE=The Music - Welcome To The North
DYEAR=2004
DGENRE=Rock
TTITLE0=Welcome To The North
TTITLE1=Freedom Fighters
TTITLE2=Bleed From Within
TTITLE3=Breakin'
TTITLE4=Cessation
TTITLE5=Fight The Feeling
TTITLE6=Guide
TTITLE7=Into The Night
TTITLE8=I Need Love
TTITLE9=One Way In, No Way Out
TTITLE10=Open Your Mind
EXTD=YEAR: 2004
EXTT0=
EXTT1=
EXTT2=
EXTT3=
EXTT4=
EXTT5=
EXTT6=
EXTT7=
EXTT8=
EXTT9=
EXTT10=
PLAYORDER=
